<svg width="100%" height="100%" viewBox="0 0 1328 194" fill="none" xmlns="http://www.w3.org/2000/svg">
<rect x="75" y="12" width="80" height="40" fill="#2B7FFF"/>
<rect x="165" y="12" width="125" height="40" fill="#2B7FFF"/>
<rect x="165" y="110" width="125" height="40" fill="#2B7FFF"/>
<rect x="148" y="61" width="142" height="40" fill="#2B7FFF"/>
<path d="M155 61H75.5C75.5 114.6 25.1667 129 0 129.5V193C133.2 199.4 158.833 107.667 155 61Z" fill="#2B7FFF"/>
<path d="M344.992 133V117H350.496C354.592 117 357.835 115.848 360.224 113.544C362.699 111.155 363.936 107.997 363.936 104.072V37.64H381.472V103.432C381.472 109.32 380.192 114.483 377.632 118.92C375.157 123.357 371.573 126.813 366.88 129.288C362.272 131.763 356.811 133 350.496 133H344.992ZM446.442 134.536C439.445 134.536 432.917 133.299 426.858 130.824C420.799 128.349 415.509 124.893 410.986 120.456C406.463 116.019 402.922 110.813 400.362 104.84C397.887 98.7813 396.65 92.2533 396.65 85.256C396.65 78.1733 397.887 71.6453 400.362 65.672C402.837 59.6987 406.335 54.4933 410.858 50.056C415.381 45.6187 420.671 42.2053 426.73 39.816C432.789 37.3413 439.359 36.104 446.442 36.104C453.525 36.104 460.095 37.3413 466.154 39.816C472.213 42.2907 477.503 45.7467 482.026 50.184C486.549 54.536 490.047 59.6987 492.522 65.672C495.082 71.6453 496.362 78.1733 496.362 85.256C496.362 92.2533 495.082 98.7813 492.522 104.84C489.962 110.813 486.421 116.019 481.898 120.456C477.375 124.893 472.085 128.349 466.026 130.824C460.053 133.299 453.525 134.536 446.442 134.536ZM446.442 118.664C451.135 118.664 455.445 117.853 459.37 116.232C463.295 114.525 466.709 112.179 469.61 109.192C472.597 106.205 474.858 102.664 476.394 98.568C478.015 94.472 478.826 90.0347 478.826 85.256C478.826 80.4773 478.015 76.0827 476.394 72.072C474.858 67.976 472.597 64.4347 469.61 61.448C466.709 58.376 463.295 56.0293 459.37 54.408C455.445 52.7867 451.135 51.976 446.442 51.976C441.834 51.976 437.567 52.7867 433.642 54.408C429.717 56.0293 426.261 58.376 423.274 61.448C420.373 64.4347 418.111 67.976 416.49 72.072C414.869 76.0827 414.058 80.4773 414.058 85.256C414.058 90.0347 414.869 94.472 416.49 98.568C418.111 102.664 420.373 106.205 423.274 109.192C426.261 112.179 429.717 114.525 433.642 116.232C437.567 117.853 441.834 118.664 446.442 118.664ZM545.889 134.536C539.83 134.536 534.198 133.427 528.993 131.208C523.873 128.989 519.436 125.917 515.681 121.992C512.012 117.981 509.324 113.331 507.617 108.04L522.081 101.768C524.385 107.229 527.713 111.539 532.065 114.696C536.417 117.768 541.324 119.304 546.785 119.304C549.857 119.304 552.502 118.835 554.721 117.896C557.025 116.872 558.774 115.507 559.969 113.8C561.249 112.093 561.889 110.045 561.889 107.656C561.889 104.84 561.036 102.536 559.329 100.744C557.708 98.8667 555.233 97.416 551.905 96.392L533.601 90.504C526.177 88.2 520.588 84.744 516.833 80.136C513.078 75.528 511.201 70.1093 511.201 63.88C511.201 58.4187 512.524 53.5973 515.169 49.416C517.9 45.2347 521.654 41.992 526.433 39.688C531.297 37.2987 536.844 36.104 543.073 36.104C548.79 36.104 554.038 37.128 558.817 39.176C563.596 41.1387 567.692 43.912 571.105 47.496C574.604 50.9947 577.206 55.1333 578.913 59.912L564.577 66.312C562.7 61.5333 559.884 57.864 556.129 55.304C552.374 52.6587 548.022 51.336 543.073 51.336C540.172 51.336 537.612 51.848 535.393 52.872C533.174 53.8107 531.425 55.176 530.145 56.968C528.95 58.6747 528.353 60.7227 528.353 63.112C528.353 65.7573 529.206 68.104 530.913 70.152C532.62 72.1147 535.222 73.6507 538.721 74.76L556.257 80.264C563.852 82.7387 569.526 86.152 573.281 90.504C577.121 94.856 579.041 100.232 579.041 106.632C579.041 112.093 577.633 116.915 574.817 121.096C572.001 125.277 568.118 128.563 563.169 130.952C558.22 133.341 552.46 134.536 545.889 134.536ZM594.716 133V37.64H658.076V53H612.124V77.448H655.516V92.808H612.124V117.64H658.076V133H594.716ZM670.841 133V37.64H706.425C712.91 37.64 718.628 38.8347 723.577 41.224C728.612 43.528 732.537 46.9413 735.353 51.464C738.169 55.9013 739.577 61.32 739.577 67.72C739.577 74.0347 738.126 79.4533 735.225 83.976C732.409 88.4133 728.526 91.8267 723.577 94.216C718.628 96.6053 712.91 97.8 706.425 97.8H688.249V133H670.841ZM688.249 82.44H706.681C709.838 82.44 712.569 81.8427 714.873 80.648C717.177 79.368 718.969 77.6187 720.249 75.4C721.529 73.1813 722.169 70.6213 722.169 67.72C722.169 64.7333 721.529 62.1733 720.249 60.04C718.969 57.8213 717.177 56.1147 714.873 54.92C712.569 53.64 709.838 53 706.681 53H688.249V82.44ZM753.841 133V37.64H771.249V79.24H811.825V37.64H829.361V133H811.825V94.6H771.249V133H753.841ZM870.466 133V37.64H933.826V53H887.874V77.448H931.266V92.808H887.874V117.64H933.826V133H870.466ZM946.591 133V37.64H960.159L1012.64 108.296L1005.6 109.704V37.64H1023.01V133H1009.31L957.599 61.832L963.999 60.424V133H946.591ZM1086.27 134.536C1079.44 134.536 1073.12 133.299 1067.32 130.824C1061.6 128.349 1056.57 124.893 1052.22 120.456C1047.95 116.019 1044.62 110.813 1042.23 104.84C1039.84 98.8667 1038.65 92.3387 1038.65 85.256C1038.65 78.1733 1039.8 71.6453 1042.11 65.672C1044.5 59.6133 1047.82 54.408 1052.09 50.056C1056.44 45.6187 1061.52 42.2053 1067.32 39.816C1073.12 37.3413 1079.44 36.104 1086.27 36.104C1093.09 36.104 1099.19 37.256 1104.57 39.56C1110.03 41.864 1114.64 44.936 1118.39 48.776C1122.15 52.5307 1124.84 56.6693 1126.46 61.192L1110.84 68.488C1109.05 63.7093 1106.02 59.784 1101.75 56.712C1097.49 53.5547 1092.32 51.976 1086.27 51.976C1080.29 51.976 1075 53.384 1070.39 56.2C1065.87 59.016 1062.33 62.8987 1059.77 67.848C1057.3 72.7973 1056.06 78.6 1056.06 85.256C1056.06 91.912 1057.3 97.7573 1059.77 102.792C1062.33 107.741 1065.87 111.624 1070.39 114.44C1075 117.256 1080.29 118.664 1086.27 118.664C1092.32 118.664 1097.49 117.128 1101.75 114.056C1106.02 110.899 1109.05 106.931 1110.84 102.152L1126.46 109.448C1124.84 113.971 1122.15 118.152 1118.39 121.992C1114.64 125.747 1110.03 128.776 1104.57 131.08C1099.19 133.384 1093.09 134.536 1086.27 134.536ZM1140.59 133V37.64H1158V133H1140.59ZM1176.34 133V37.64H1193.75V117.64H1234.58V133H1176.34ZM1238.03 133L1270.93 37.64H1293.46L1326.35 133H1307.41L1300.62 112.52H1263.76L1256.85 133H1238.03ZM1268.75 97.16H1295.63L1279.76 49.672H1284.63L1268.75 97.16Z" fill="current"/>
</svg>
