<svg width="1465" height="182" viewBox="0 0 1465 182" fill="none" xmlns="http://www.w3.org/2000/svg">
<path d="M386.682 6.04688H409.159V94.0014C409.118 102.064 407.408 109.007 404.028 114.83C400.649 120.612 395.925 125.071 389.858 128.206C383.831 131.301 376.807 132.848 368.786 132.848C361.456 132.848 354.859 131.545 348.996 128.939C343.173 126.292 338.551 122.383 335.131 117.212C331.71 112.04 330 105.607 330 97.9105H352.538C352.579 101.29 353.312 104.202 354.737 106.645C356.203 109.088 358.219 110.961 360.784 112.264C363.349 113.567 366.302 114.219 369.641 114.219C373.265 114.219 376.339 113.465 378.864 111.959C381.388 110.411 383.302 108.131 384.605 105.118C385.949 102.105 386.641 98.3992 386.682 94.0014V6.04688Z" fill="black"/>
<path d="M473.69 132.97C464.528 132.97 456.587 130.955 449.869 126.923C443.15 122.892 437.938 117.252 434.232 110.004C430.567 102.756 428.735 94.2865 428.735 84.5952C428.735 74.9039 430.567 66.4138 434.232 59.125C437.938 51.8362 443.15 46.1761 449.869 42.1449C456.587 38.1136 464.528 36.098 473.69 36.098C482.852 36.098 490.792 38.1136 497.511 42.1449C504.229 46.1761 509.421 51.8362 513.086 59.125C516.791 66.4138 518.644 74.9039 518.644 84.5952C518.644 94.2865 516.791 102.756 513.086 110.004C509.421 117.252 504.229 122.892 497.511 126.923C490.792 130.955 482.852 132.97 473.69 132.97ZM473.812 115.257C478.78 115.257 482.933 113.893 486.272 111.165C489.611 108.396 492.095 104.69 493.724 100.048C495.393 95.4063 496.228 90.2349 496.228 84.5341C496.228 78.7926 495.393 73.6009 493.724 68.9588C492.095 64.276 489.611 60.5502 486.272 57.7812C482.933 55.0123 478.78 53.6278 473.812 53.6278C468.722 53.6278 464.487 55.0123 461.107 57.7812C457.768 60.5502 455.264 64.276 453.594 68.9588C451.966 73.6009 451.151 78.7926 451.151 84.5341C451.151 90.2349 451.966 95.4063 453.594 100.048C455.264 104.69 457.768 108.396 461.107 111.165C464.487 113.893 468.722 115.257 473.812 115.257Z" fill="black"/>
<path d="M611.561 62.1179L591.405 64.3168C590.835 62.2808 589.837 60.367 588.412 58.5753C587.028 56.7836 585.155 55.3381 582.793 54.2386C580.431 53.1392 577.54 52.5895 574.12 52.5895C569.518 52.5895 565.65 53.5871 562.515 55.5824C559.42 57.5777 557.893 60.1634 557.934 63.3395C557.893 66.0677 558.891 68.2869 560.926 69.9972C563.003 71.7074 566.424 73.1122 571.188 74.2117L587.191 77.6321C596.068 79.5459 602.664 82.5795 606.98 86.733C611.337 90.8864 613.536 96.3224 613.577 103.041C613.536 108.946 611.806 114.158 608.385 118.678C605.006 123.157 600.302 126.659 594.276 129.183C588.249 131.708 581.327 132.97 573.509 132.97C562.026 132.97 552.783 130.568 545.779 125.763C538.775 120.917 534.601 114.178 533.257 105.545L554.819 103.469C555.796 107.704 557.873 110.9 561.049 113.058C564.225 115.216 568.358 116.295 573.448 116.295C578.701 116.295 582.915 115.216 586.091 113.058C589.308 110.9 590.917 108.233 590.917 105.057C590.917 102.369 589.878 100.15 587.801 98.3991C585.766 96.6482 582.589 95.3045 578.273 94.3679L562.27 91.0085C553.271 89.1354 546.614 85.9796 542.297 81.5412C537.981 77.062 535.843 71.402 535.884 64.5611C535.843 58.7789 537.411 53.7704 540.587 49.5355C543.804 45.2599 548.263 41.9617 553.963 39.6406C559.705 37.2789 566.322 36.098 573.814 36.098C584.809 36.098 593.462 38.4394 599.773 43.1222C606.125 47.8049 610.055 54.1368 611.561 62.1179Z" fill="black"/>
<path d="M673.343 132.97C663.937 132.97 655.814 131.016 648.973 127.107C642.172 123.157 636.94 117.578 633.275 110.371C629.61 103.123 627.778 94.5919 627.778 84.7784C627.778 75.1278 629.61 66.6581 633.275 59.3693C636.981 52.0398 642.152 46.339 648.789 42.267C655.427 38.1544 663.225 36.098 672.183 36.098C677.965 36.098 683.422 37.0346 688.552 38.9077C693.724 40.7401 698.284 43.5904 702.234 47.4588C706.225 51.3272 709.36 56.2543 711.64 62.2401C713.921 68.1851 715.061 75.2704 715.061 83.4957V90.2756H638.162V75.3722H693.866C693.825 71.1373 692.909 67.3707 691.118 64.0724C689.326 60.7334 686.822 58.107 683.605 56.1932C680.429 54.2794 676.723 53.3224 672.488 53.3224C667.968 53.3224 663.998 54.4219 660.578 56.6207C657.157 58.7789 654.49 61.6293 652.576 65.1719C650.703 68.6738 649.746 72.5218 649.706 76.7159V89.7259C649.706 95.1823 650.703 99.8651 652.699 103.774C654.694 107.643 657.483 110.615 661.066 112.692C664.65 114.728 668.844 115.746 673.649 115.746C676.866 115.746 679.777 115.298 682.383 114.402C684.989 113.465 687.249 112.101 689.163 110.31C691.077 108.518 692.522 106.299 693.5 103.652L714.145 105.973C712.841 111.429 710.358 116.194 706.693 120.266C703.069 124.297 698.427 127.432 692.767 129.672C687.107 131.871 680.632 132.97 673.343 132.97Z" fill="black"/>
<path d="M733.766 166.32V37.3196H755.511V52.8338H756.793C757.934 50.5535 759.542 48.1307 761.619 45.5653C763.695 42.9593 766.505 40.7401 770.048 38.9077C773.59 37.0346 778.11 36.098 783.607 36.098C790.855 36.098 797.391 37.9508 803.214 41.6562C809.077 45.321 813.719 50.7571 817.14 57.9645C820.601 65.1312 822.332 73.9266 822.332 84.3509C822.332 94.6529 820.642 103.408 817.262 110.615C813.882 117.822 809.281 123.32 803.458 127.107C797.635 130.893 791.039 132.787 783.668 132.787C778.293 132.787 773.835 131.891 770.292 130.099C766.749 128.308 763.899 126.15 761.741 123.625C759.623 121.06 757.974 118.637 756.793 116.357H755.877V166.32H733.766ZM755.45 84.2287C755.45 90.2959 756.305 95.6098 758.015 100.17C759.766 104.731 762.27 108.294 765.528 110.859C768.826 113.384 772.817 114.646 777.499 114.646C782.386 114.646 786.478 113.343 789.776 110.737C793.075 108.09 795.559 104.487 797.228 99.9261C798.938 95.3248 799.793 90.0923 799.793 84.2287C799.793 78.4058 798.959 73.2344 797.289 68.7145C795.62 64.1946 793.136 60.652 789.837 58.0866C786.539 55.5213 782.426 54.2386 777.499 54.2386C772.776 54.2386 768.765 55.4806 765.467 57.9645C762.168 60.4484 759.664 63.9299 757.954 68.4091C756.284 72.8883 755.45 78.1615 755.45 84.2287Z" fill="black"/>
<path d="M863.377 76.1662V131.138H841.266V6.04688H862.888V53.2614H863.988C866.187 47.9678 869.587 43.794 874.188 40.7401C878.83 37.6454 884.735 36.098 891.901 36.098C898.416 36.098 904.097 37.4621 908.942 40.1903C913.788 42.9186 917.534 46.9091 920.181 52.1619C922.869 57.4148 924.212 63.8281 924.212 71.402V131.138H902.102V74.8224C902.102 68.5109 900.473 63.6042 897.215 60.1023C893.998 56.5597 889.478 54.7884 883.656 54.7884C879.746 54.7884 876.245 55.6435 873.15 57.3537C870.096 59.0232 867.693 61.446 865.942 64.6222C864.232 67.7983 863.377 71.6463 863.377 76.1662Z" fill="black"/>
<path d="M990.392 131.138V6.04688H1071.75V25.0426H1013.05V59.0028H1067.54V77.9986H1013.05V112.142H1072.24V131.138H990.392Z" fill="black"/>
<path d="M1116 76.1662V131.138H1093.89V37.3196H1115.02V53.2614H1116.12C1118.28 48.0085 1121.72 43.8348 1126.45 40.7401C1131.21 37.6454 1137.09 36.098 1144.1 36.098C1150.57 36.098 1156.21 37.4825 1161.02 40.2514C1165.86 43.0204 1169.61 47.0312 1172.26 52.2841C1174.94 57.5369 1176.27 63.9096 1176.23 71.402V131.138H1154.12V74.8224C1154.12 68.5516 1152.49 63.6449 1149.23 60.1023C1146.01 56.5597 1141.55 54.7884 1135.85 54.7884C1131.98 54.7884 1128.54 55.6435 1125.53 57.3537C1122.56 59.0232 1120.22 61.446 1118.51 64.6222C1116.84 67.7983 1116 71.6463 1116 76.1662Z" fill="black"/>
<path d="M1239.63 132.97C1230.26 132.97 1222.22 130.914 1215.5 126.801C1208.82 122.688 1203.67 117.008 1200.05 109.76C1196.46 102.471 1194.67 94.0829 1194.67 84.5952C1194.67 75.0668 1196.5 66.6581 1200.17 59.3693C1203.83 52.0398 1209.01 46.339 1215.68 42.267C1222.4 38.1544 1230.34 36.098 1239.5 36.098C1247.12 36.098 1253.86 37.5028 1259.72 40.3125C1265.63 43.0814 1270.33 47.0109 1273.83 52.1009C1277.33 57.1501 1279.33 63.0545 1279.82 69.8139H1258.68C1257.83 65.294 1255.79 61.5275 1252.58 58.5142C1249.4 55.4602 1245.14 53.9332 1239.81 53.9332C1235.29 53.9332 1231.32 55.1548 1227.9 57.598C1224.48 60.0005 1221.81 63.4617 1219.9 67.9815C1218.03 72.5014 1217.09 77.9171 1217.09 84.2287C1217.09 90.6217 1218.03 96.1189 1219.9 100.72C1221.77 105.281 1224.4 108.803 1227.78 111.287C1231.2 113.73 1235.21 114.952 1239.81 114.952C1243.07 114.952 1245.98 114.341 1248.54 113.119C1251.15 111.857 1253.33 110.045 1255.08 107.683C1256.83 105.322 1258.03 102.451 1258.68 99.071H1279.82C1279.29 105.708 1277.33 111.592 1273.95 116.723C1270.57 121.813 1265.97 125.804 1260.15 128.695C1254.33 131.545 1247.49 132.97 1239.63 132.97Z" fill="black"/>
<path d="M1297.97 131.138V37.3196H1320.08V131.138H1297.97ZM1309.09 24.0043C1305.59 24.0043 1302.57 22.8438 1300.05 20.5227C1297.53 18.161 1296.26 15.331 1296.26 12.0327C1296.26 8.69366 1297.53 5.86363 1300.05 3.54261C1302.57 1.18087 1305.59 0 1309.09 0C1312.63 0 1315.65 1.18087 1318.13 3.54261C1320.65 5.86363 1321.92 8.69366 1321.92 12.0327C1321.92 15.331 1320.65 18.161 1318.13 20.5227C1315.65 22.8438 1312.63 24.0043 1309.09 24.0043Z" fill="black"/>
<path d="M1364.93 6.04688V131.138H1342.82V6.04688H1364.93Z" fill="black"/>
<path d="M1414.67 133.031C1408.72 133.031 1403.37 131.973 1398.6 129.855C1393.88 127.697 1390.13 124.521 1387.36 120.327C1384.64 116.133 1383.27 110.961 1383.27 104.812C1383.27 99.5189 1384.25 95.1416 1386.2 91.6804C1388.16 88.2192 1390.82 85.4503 1394.2 83.3736C1397.58 81.2969 1401.39 79.7292 1405.63 78.6705C1409.9 77.571 1414.32 76.777 1418.88 76.2884C1424.38 75.7183 1428.84 75.2093 1432.26 74.7614C1435.68 74.2727 1438.16 73.5398 1439.71 72.5625C1441.3 71.5445 1442.09 69.9768 1442.09 67.8594V67.4929C1442.09 62.8916 1440.73 59.3286 1438 56.804C1435.27 54.2794 1431.34 53.017 1426.21 53.017C1420.79 53.017 1416.5 54.1979 1413.32 56.5597C1410.19 58.9214 1408.07 61.7107 1406.97 64.9276L1386.32 61.9957C1387.95 56.295 1390.64 51.5308 1394.39 47.7031C1398.13 43.8348 1402.71 40.9437 1408.13 39.0298C1413.55 37.0753 1419.53 36.098 1426.09 36.098C1430.61 36.098 1435.11 36.6274 1439.59 37.6861C1444.07 38.7448 1448.16 40.4957 1451.86 42.9389C1455.57 45.3414 1458.54 48.6193 1460.78 52.7727C1463.06 56.9261 1464.2 62.1179 1464.2 68.348V131.138H1442.95V118.25H1442.21C1440.87 120.856 1438.98 123.299 1436.53 125.58C1434.13 127.819 1431.1 129.631 1427.43 131.016C1423.81 132.359 1419.55 133.031 1414.67 133.031ZM1420.41 116.784C1424.85 116.784 1428.69 115.909 1431.95 114.158C1435.21 112.366 1437.71 110.004 1439.46 107.072C1441.26 104.141 1442.15 100.944 1442.15 97.483V86.4276C1441.46 86.9976 1440.28 87.527 1438.61 88.0156C1436.98 88.5043 1435.15 88.9318 1433.11 89.2983C1431.08 89.6648 1429.06 89.9905 1427.06 90.2756C1425.07 90.5606 1423.34 90.8049 1421.87 91.0085C1418.57 91.4564 1415.62 92.1894 1413.02 93.2074C1410.41 94.2254 1408.35 95.6506 1406.85 97.483C1405.34 99.2746 1404.59 101.596 1404.59 104.446C1404.59 108.518 1406.07 111.592 1409.05 113.669C1412.02 115.746 1415.81 116.784 1420.41 116.784Z" fill="black"/>
<rect x="75" width="80" height="40" fill="#2B7FFF"/>
<rect x="165" width="125" height="40" fill="#2B7FFF"/>
<rect x="165" y="98" width="125" height="40" fill="#2B7FFF"/>
<rect x="148" y="49" width="142" height="40" fill="#2B7FFF"/>
<path d="M155 49H75.5C75.5 102.6 25.1667 117 0 117.5V181C133.2 187.4 158.833 95.6667 155 49Z" fill="#2B7FFF"/>
</svg>
